<svg xmlns="http://www.w3.org/2000/svg" data-y0c="true" data-qa="sidebar-channel-icon-prefix" aria-hidden="true" data-sidebar-channel-icon="channel" viewBox="0 0 20 20" class="" style="--s: 16px;"><path fill="currentColor" fill-rule="evenodd" d="M9.984 4.176a1 1 0 0 0-1.968-.352L7.448 7H4a1 1 0 0 0 0 2h3.091l-.803 4.5H3a1 1 0 1 0 0 2h2.93l-.414 2.324a1 1 0 0 0 1.968.352l.478-2.676h2.719l-.415 2.324a1 1 0 1 0 1.968.352l.478-2.676H16a1 1 0 1 0 0-2h-2.93l.803-4.5H17a1 1 0 1 0 0-2h-2.77l.504-2.824a1 1 0 1 0-1.968-.352L12.198 7H9.48zm1.054 9.324L11.84 9H9.123l-.804 4.5z" clip-rule="evenodd"/></svg>