<svg xmlns="http://www.w3.org/2000/svg" data-y0c="true" data-qa="slack-logo-color" aria-hidden="true" aria-label="Slack logo" viewBox="0 0 20 20" class=""><g fill="none"><path fill="#36C5F0" d="M9.52 2.9v1.9h-1.9q-.51 0-.95-.25a2 2 0 0 1-.69-.69 1.9 1.9 0 0 1-.25-.96q0-.51.25-.94.26-.44.69-.7.44-.26.95-.26.52 0 .95.26.44.25.69.69.26.44.26.95m-.25 5.68q.26-.44.26-.96 0-.51-.26-.94a1.8 1.8 0 0 0-.69-.69 1.8 1.8 0 0 0-.95-.26H2.9q-.51 0-.95.26a1.9 1.9 0 0 0-.69.69Q1 7.11 1 7.62q0 .52.25.96.26.43.7.69.44.25.95.25h4.73q.52 0 .95-.25.44-.26.69-.69"/><path fill="#F1B900" d="M10.47 12.37q0-.52.25-.95.26-.44.69-.69.44-.26.96-.26h4.73q.51 0 .95.26.44.25.69.69.26.43.26.95 0 .51-.26.94a1.9 1.9 0 0 1-.69.69 1.9 1.9 0 0 1-.95.25h-4.73a1.9 1.9 0 0 1-.96-.25 2 2 0 0 1-.69-.69q-.25-.43-.25-.94m0 2.83v1.9q0 .51.25.95.26.441.69.69.44.26.96.26.51 0 .94-.26.43-.249.68-.69.26-.44.26-.95 0-.52-.26-.95a1.83 1.83 0 0 0-.68-.69q-.43-.26-.94-.26z"/><path fill="#E01E5A" d="M1.95 14q.44.25.95.25.52 0 .95-.25.44-.26.69-.69.26-.43.26-.94v-1.9H2.9q-.51 0-.95.26A1.86 1.86 0 0 0 1 12.37q0 .51.25.94.26.43.7.69m6.62-3.27a1.8 1.8 0 0 0-.95-.26q-.51 0-.95.26a1.9 1.9 0 0 0-.69.69q-.25.43-.25.95v4.73q0 .51.25.94.26.44.69.7.44.26.95.26.52 0 .95-.26.44-.249.69-.69.26-.44.26-.95v-4.73q0-.52-.26-.95a1.8 1.8 0 0 0-.69-.69"/><path fill="#2EB67D" d="M11.41 9.28q.44.25.96.25a1.84 1.84 0 0 0 1.62-.94q.26-.44.26-.96V2.9q0-.51-.26-.95a1.83 1.83 0 0 0-.68-.69Q12.88 1 12.37 1q-.52 0-.96.26a1.9 1.9 0 0 0-.69.69 1.9 1.9 0 0 0-.25.95v4.73q0 .52.25.96.26.43.69.69m5.69.24h-1.9v-1.9q0-.51.25-.94.26-.44.69-.69.44-.26.96-.26.51 0 .94.26.44.25.7.69.26.43.26.94 0 .52-.26.96a1.9 1.9 0 0 1-.69.69q-.44.25-.95.25"/></g></svg>